<?xml version="1.0" encoding="UTF-8"?>
<svg width="270" height="210" version="1.1" xmlns="http://www.w3.org/2000/svg">
 <path d="m248.64 66.4-13.524 6.9275 4.7384 9.0007 14.61-5.6128z" fill="#939fdc"/>
 <path d="m243.11 91.94 0.24679 10.518 15.795-1.3147-1.234-12.641z" fill="#96aae4"/>
 <path d="m257.92 88.5-3.4551-11.782-14.61 5.6128 3.2577 9.6075z" fill="#93a5e1"/>
 <path d="m240.99 56.14-12.241 8.3939 6.3672 8.7984 13.524-6.9275z" fill="#939ad8"/>
 <path d="m209.45 31.11-8.0454 11.883 10.513 6.4218 9.3288-10.821z" fill="#9a90c8"/>
 <path d="m209.45 31.11-12.734-6.5735-6.8608 13.248 11.55 5.2083z" fill="#9e8ec3"/>
 <path d="m196.72 24.53-13.426-4.8037-5.1333 13.248 11.698 4.8037z" fill="#a28dbf"/>
 <path d="m169.32 15.68-3.6525 14.108 12.488 3.1856 5.1333-13.248z" fill="#a68dbb"/>
 <path d="m165.67 29.79-3.7019 14.057 10.81 3.1351 5.3801-14.007z" fill="#a28bbb"/>
 <path d="m169.32 15.68-14.659-2.7811-2.2211 13.804 13.228 3.0845z" fill="#ab8eb7"/>
 <path d="m178.16 32.98-5.3801 14.007 10.563 3.4385 6.5153-12.641z" fill="#9d8bc0"/>
 <path d="m165.67 29.79-13.228-3.0845-2.3692 14.664 11.895 2.4777z" fill="#a78bb7"/>
 <path d="m184.87 67.26 7.6506 4.4498 9.773-11.226-9.1807-5.36z" fill="#958eca"/>
 <path d="m193.11 55.13-9.773-4.7026-6.7127 12.945 8.2428 3.8936z" fill="#998cc5"/>
 <path d="m193.11 55.13 8.2922-12.136-11.55-5.2083-6.5153 12.641z" fill="#998cc5"/>
 <path d="m167.5 60.54 9.1313 2.8317 6.7127-12.945-10.563-3.4385z" fill="#9d8bc0"/>
 <path d="m172.78 46.98-10.81-3.1351-3.6525 13.956 9.1807 2.7306z" fill="#a28bbb"/>
 <path d="m167.5 60.54-5.232 13.552 7.6506 2.2755 6.7128-12.995z" fill="#9888c1"/>
 <path d="m176.63 79.4 8.2428-12.136-8.2428-3.8936-6.7128 12.995z" fill="#9389c6"/>
 <path d="m194.15 94.21 13.672-6.9781-4.2448-5.5622-12.636 8.6467z" fill="#8599df"/>
 <path d="m192.52 71.71-9.7236 11.226 4.9358 3.5396 11.007-9.9614z" fill="#8a8fd2"/>
 <path d="m198.74 76.51 11.007-9.9614-7.4531-6.0679-9.773 11.226z" fill="#9291cf"/>
 <path d="m187.73 86.48 3.2083 3.843 12.636-8.6467-4.8371-5.1577z" fill="#8793d9"/>
 <path d="m192.52 71.71-7.6506-4.4498-8.2428 12.136 6.1698 3.5396z" fill="#8e8ccc"/>
 <path d="m167.5 60.54-9.1807-2.7306-3.6525 14.007 7.6012 2.2754z" fill="#9d87bc"/>
 <path d="m228.75 64.53 12.241-8.3939-9.23-9.4558-10.809 9.7592z" fill="#9496d2"/>
 <path d="m220.95 56.44-11.204 10.113 6.5153 6.4724 12.488-8.495z" fill="#8f95d5"/>
 <path d="m216.26 73.03 5.232 7.2309 13.623-6.9275-6.3672-8.7984z" fill="#8e9adb"/>
 <path d="m231.76 46.68-10.513-8.0905-9.3288 10.821 9.0326 7.0286z" fill="#9792cd"/>
 <path d="m202.29 60.49 7.4531 6.0679 11.204-10.113-9.0326-7.0286z" fill="#9291cf"/>
 <path d="m211.92 49.41-10.513-6.4218-8.2922 12.136 9.1807 5.36z" fill="#958eca"/>
 <path d="m207.82 87.23-13.672 6.9781 2.4186 4.7026 14.363-5.5117z" fill="#85a0e5"/>
 <path d="m210.93 93.4 14.363-5.5117-3.8006-7.6354-13.672 6.9781z" fill="#8da0e0"/>
 <path d="m207.82 87.23 13.672-6.9781-5.232-7.2309-12.685 8.6467z" fill="#8e9adb"/>
 <path d="m216.26 73.03-6.5153-6.4724-11.007 9.9614 4.8371 5.1577z" fill="#8f95d5"/>
 <path d="m227.17 95.58 15.943-3.6407-3.2577-9.6075-14.561 5.5622z" fill="#8fa6e5"/>
 <path d="m225.29 87.89-14.363 5.5117 0.98716 5.7139 15.252-3.5396z" fill="#8fa6e5"/>
 <path d="m221.49 80.26 3.8006 7.6354 14.561-5.5622-4.7384-9.0007z" fill="#8da0e0"/>
 <path d="m226.43 112.26 16.041 0.55622 0.88846-10.366-15.4 1.3147z" fill="#96b3ec"/>
 <path d="m227.96 103.77-15.548 1.3147-1.6288 6.6241 15.647 0.55623z" fill="#96b3ec"/>
 <path d="m223.32 120.2 15.647 2.68 3.5044-10.063-16.041-0.55622z" fill="#9bb9ed"/>
 <path d="m226.43 112.26-15.647-0.55623-2.8134 5.8656 15.35 2.6294z" fill="#9bb9ed"/>
 <path d="m211.92 99.12-15.202 3.489 0.14807 3.7419 15.548-1.2641z" fill="#89b0ef"/>
 <path d="m212.41 105.08 15.548-1.3147-0.78974-8.1916-15.252 3.5396z" fill="#91ade9"/>
 <path d="m210.78 111.71-15.647-0.55623-2.4679 3.7924 15.301 2.6294z" fill="#96bef3"/>
 <path d="m212.41 105.08-15.548 1.2641-1.7276 4.8037 15.647 0.55623z" fill="#8fb8f2"/>
 <path d="m218.73 127.79 4.5903-7.5849-15.35-2.6294-3.8993 5.4611z" fill="#a1bded"/>
 <path d="m204.07 123.03-6.0217 5.5117 14.018 7.1298 6.6634-7.8882z" fill="#a7c0eb"/>
 <path d="m207.97 117.57-15.301-2.6294-3.2083 3.2868 14.61 4.8037z" fill="#9ec4f3"/>
 <path d="m212.07 135.68 13.672 6.9275 7.848-9.9614-14.857-4.8543z" fill="#a7c0eb"/>
 <path d="m198.05 128.55h-0.0494l-6.6634 5.1071 12.29 8.5962 8.4403-6.5736z" fill="#adc1e8"/>
 <path d="m203.63 142.25 12.784 9.0007h0.0494l9.2794-8.6467-13.672-6.9275z" fill="#adc1e8"/>
 <path d="m225.74 142.6 14.314 7.2309 8.4896-12.338-14.956-4.8543z" fill="#a7bae7"/>
 <path d="m216.46 151.25 12.734 8.9501 10.859-10.366-14.314-7.2309z" fill="#acbbe5"/>
 <path d="m233.59 132.64 14.956 4.8543 6.0711-11.934-15.647-2.68z" fill="#a3b8e8"/>
 <path d="m238.97 122.88-15.647-2.68-4.5903 7.5849 14.857 4.8543z" fill="#a1bded"/>
 <path d="m196.72 102.61 15.202-3.489-0.98716-5.7139-14.363 5.5117z" fill="#86a8eb"/>
 <path d="m172.43 128.24 10.563 10.265v0.0506l8.3416-4.9049-12.241-8.5962z" fill="#b4c8e9"/>
 <path d="m164.53 129.86-8.6377 1.517 7.0089 13.703 10.563-3.1856z" fill="#bbc2df"/>
 <path d="m173.47 141.9 9.5262-3.3879-10.563-10.265-7.8973 1.6181z" fill="#b9c6e4"/>
 <path d="m162.91 145.08 7.0582 13.754 12.438-4.9049-8.9339-12.035z" fill="#b7bbdc"/>
 <path d="m198 128.55h0.0494l6.0217-5.5117-14.61-4.8037-4.0967 3.8936z" fill="#a7c8f1"/>
 <path d="m185.36 122.12-6.2685 2.9328 12.241 8.5962 6.6634-5.1071z" fill="#aec9ed"/>
 <path d="m182.99 138.56 10.563 10.265 10.069-6.5735-12.29-8.5962z" fill="#b2c1e5"/>
 <path d="m182.99 138.51-9.5262 3.3879 8.9339 12.035 11.155-5.1071-10.563-10.265z" fill="#b5bee1"/>
 <path d="m169.96 158.84 7.1076 13.855 14.857-5.9162-9.5262-12.844z" fill="#b7bbdc"/>
 <path d="m191.93 166.77 12.833-7.0286-11.204-10.922-11.155 5.1071z" fill="#b5bee1"/>
 <path d="m204.76 159.75 11.649-8.495-12.784-9.0007-10.069 6.5735z" fill="#b2c1e5"/>
 <path d="m166.51 193.07 18.016-5.8151-7.4531-14.563-15.597 5.006z" fill="#b4b2d7"/>
 <path d="m161.47 177.7-16.239 3.0845 2.7641 16.333 18.509-4.0452z" fill="#b3add3"/>
 <path d="m177.07 172.69-7.1076-13.855-13.574 3.3879 5.0839 15.473z" fill="#b8b7d8"/>
 <path d="m184.52 187.25 16.782-7.8377-9.3781-12.641-14.857 5.9162z" fill="#b4b6da"/>
 <path d="m204.76 159.75-12.833 7.0286 9.3781 12.641 14.808-8.5962z" fill="#b2b9de"/>
 <path d="m216.11 170.82 13.08-10.619-12.734-8.9501h-0.0494l-11.649 8.495z" fill="#b0bbe2"/>
 <path d="m162.91 145.08-11.303 2.4777 4.7878 14.664 13.574-3.3879z" fill="#b8b7d8"/>
 <path d="m258.02 113.38-15.548-0.55622-3.5044 10.063 15.647 2.68z" fill="#9db4e8"/>
 <path d="m258.02 113.38 1.1352-12.237-15.795 1.3147-0.88846 10.366z" fill="#99b0e7"/>
 <path d="m227.17 95.58 0.78974 8.1916 15.4-1.3147-0.24679-10.518z" fill="#91ade9"/>
 <path d="m140.6 11.03-1.0859 14.26 12.932 1.4158 2.2211-13.804z" fill="#af8eb3"/>
 <path d="m126.87 24.68-13.87 0.35396 0.69102 14.816 12.734-0.75848z" fill="#b78fad"/>
 <path d="m126.43 39.1 11.945 0.85961 1.1352-14.664-12.636-0.60679z" fill="#b18db0"/>
 <path d="m138.37 39.96 11.698 1.4158 2.3692-14.664-12.932-1.4158z" fill="#ac8cb4"/>
 <path d="m126.43 39.1-0.39487 14.967 11.254 0.40453 1.0859-14.512z" fill="#b18db0"/>
 <path d="m139.51 25.29 1.0859-14.26-13.327-1.163-0.39486 14.816z" fill="#b490b0"/>
 <path d="m138.37 39.96-1.0859 14.512 10.464 1.4158 2.3198-14.512z" fill="#ac8cb4"/>
 <path d="m127.27 9.87-14.956 0.85962 0.69101 14.31 13.87-0.35396z" fill="#ba92ad"/>
 <path d="m86.051 14.32 1.7769 14.26 12.537-2.1238-1.234-14.411z" fill="#c597a7"/>
 <path d="m89.661 43.29 11.945-2.1238-1.234-14.715-12.537 2.1238z" fill="#c294a7"/>
 <path d="m87.831 28.58-11.204 3.1856 2.1224 14.26 10.908-2.7306z" fill="#c897a3"/>
 <path d="m113 25.04-12.636 1.4158 1.234 14.715 12.093-1.3147z" fill="#bc91aa"/>
 <path d="m113 25.04-0.69101-14.31-13.179 1.3147 1.234 14.411z" fill="#bf94aa"/>
 <path d="m101.6 41.17 1.1846 14.411 11.55-1.163-0.64167-14.563z" fill="#bc91aa"/>
 <path d="m86.051 14.32-11.599 3.1351 2.1718 14.31 11.204-3.1856z" fill="#cc9aa4"/>
 <path d="m89.661 43.29 1.6782 13.855 11.451-1.5675-1.1846-14.411z" fill="#c294a7"/>
 <path d="m102.79 55.58-11.451 1.5675 1.7275 13.906 10.958-1.0113z" fill="#be90a6"/>
 <path d="m104.02 70.04 11.007-1.0113-0.69101-14.613-11.55 1.163z" fill="#b88ea9"/>
 <path d="m115.03 69.03h10.563l0.44423-14.967-11.698 0.35396z" fill="#b28cad"/>
 <path d="m91.341 57.15-1.6782-13.855-10.908 2.7306 2.0731 13.552z" fill="#c897a3"/>
 <path d="m80.821 59.57 2.0237 13.602 10.217-2.1238-1.7275-13.906z" fill="#c493a3"/>
 <path d="m80.821 59.57-10.563 3.3373 2.2211 13.198 10.365-2.9328z" fill="#cb979f"/>
 <path d="m158.32 57.81 3.6525-13.956-11.895-2.4777-2.3198 14.512z" fill="#a78bb7"/>
 <path d="m147.75 55.88-2.3692 14.563 9.2794 1.3653 3.6525-14.007z" fill="#a288b8"/>
 <path d="m147.75 55.88-10.464-1.4158-1.1352 14.563 9.23 1.4158z" fill="#a888b4"/>
 <path d="m136.15 69.03 1.1352-14.563-11.254-0.40453-0.44423 14.967z" fill="#ad8ab0"/>
 <path d="m126.43 39.1-12.734 0.75848 0.64167 14.563 11.698-0.35396z" fill="#b78fad"/>
 <path d="m55.901 40.56 2.1224 13.855 9.9704-4.652-2.3692-13.855-9.7236 4.6015z" fill="#d69e9b"/>
 <path d="m55.901 40.51-2.1718-13.804-8.8845 5.6634 1.8263 13.4 9.23-5.2083z" fill="#e3a795"/>
 <path d="m55.901 40.51 9.7236-4.6015-2.4186-14.158-9.4768 4.9554z" fill="#daa39b"/>
 <path d="m76.631 31.76-2.1718-14.31-11.254 4.2981 2.4186 14.158z" fill="#d29ea0"/>
 <path d="m65.621 35.91 2.3692 13.855 10.76-3.7419-2.1224-14.26z" fill="#cf9aa0"/>
 <path d="m39.021 52.39 1.3327 12.641 8.1441-5.9668-1.8263-13.299-7.6506 6.5736z" fill="#e7a88d"/>
 <path d="m39.021 52.34-1.4808-13.906-6.0217 7.7366 0.78973 12.945 6.7127-6.7252z" fill="#f5b27d"/>
 <path d="m24.703 70.19 3.3564-5.3094v-11.782l-3.3564 9.8603z" fill="#f2a834"/>
 <path d="m24.703 62.96-2.7641 18.153 0.44422 8.7479 3.5538-11.984-1.234-7.686z" fill="#000063"/>
 <path d="m24.703 70.19 1.234 7.686 0.54294 1.6687 1.5795-2.5283v-12.136z" fill="#f8ab47"/>
 <path d="m33.041 71.31 0.78973 12.591 7.848-6.3207v-0.0506l-1.3327-12.49z" fill="#f1ad81"/>
 <path d="m31.514 46.17-3.4551 6.9275v11.782l4.2448-5.7645z" fill="#fbb464"/>
 <path d="m32.304 59.12 0.74038 12.186 7.305-6.2702-1.3327-12.641z" fill="#f1ad81"/>
 <path d="m28.059 64.88v12.136l4.9852-5.7139-0.74038-12.186z" fill="#f9b06c"/>
 <path d="m26.48 79.55 1.5795 4.652v-7.1803z" fill="#f8ab47"/>
 <path d="m25.937 77.88-3.5538 11.984v0.10113l1.2833 6.8769 4.3929-12.641-1.5795-4.652z" fill="#000b91"/>
 <path d="m30.083 87.59 3.7512-3.6407v-0.0506l-0.78973-12.591-4.9852 5.7139v7.1803z" fill="#f9b06c"/>
 <path d="m28.059 84.2-4.3929 12.641 3.2083 7.5343 5.232-13.349-2.0237-3.4385z" fill="#3236a6"/>
 <path d="m22.383 89.86-0.44422-8.7479-3.1589 20.783 3.6032-11.934z" fill="#000063"/>
 <path d="m34.381 93.5-0.54295-9.5569-3.7512 3.6407 2.0237 3.4385z" fill="#f5ab73"/>
 <path d="m32.107 91.03-5.232 13.349 5.4294 7.6354 6.466-14.158-2.9615-2.9328-1.4314-1.4158z" fill="#5851b0"/>
 <path d="m35.811 94.92 7.157-4.9049-1.2833-12.439-7.848 6.3207v0.0506l0.54295 9.5569z" fill="#eca884"/>
 <path d="m70.261 62.91 10.563-3.3373-2.0731-13.552-10.76 3.7419z" fill="#cf9aa0"/>
 <path d="m67.991 49.77-9.9704 4.652 1.9743 12.743 10.267-4.2475z" fill="#d69e9b"/>
 <path d="m58.021 54.42-9.5262 4.652 1.7769 12.844 9.7236-4.7532z" fill="#dea396"/>
 <path d="m48.491 59.07 9.5262-4.652-2.1224-13.855-9.23 5.2083z" fill="#dea396"/>
 <path d="m52.001 84.81 9.9704-4.9049-1.9743-12.743-9.7236 4.7532v0.0506z" fill="#da9e96"/>
 <path d="m50.271 71.96-8.5884 5.5622v0.0506l1.2833 12.439 9.0326-5.2083z" fill="#e2a38f"/>
 <path d="m50.271 71.96v-0.0506l-1.7769-12.844-8.1441 5.9668 1.3327 12.49z" fill="#e7a88d"/>
 <path d="m72.481 76.11-2.2211-13.198-10.267 4.2475 1.9743 12.743z" fill="#d29a9b"/>
 <path d="m44.841 32.37-7.305 6.0679 1.4808 13.906 7.6506-6.5736z" fill="#ecad8c"/>
 <path d="m61.971 115.8-6.7621 15.675 10.464 5.2588 6.4166-16.13z" fill="#9a86bd"/>
 <path d="m45.191 104.27-6.7621 14.765 7.7986 6.523 7.0089-15.321z" fill="#8272b8"/>
 <path d="m55.211 131.48 6.7621-15.675-8.7364-5.5622-7.0089 15.321z" fill="#8f7dbb"/>
 <path d="m46.221 125.56-7.0089 15.321 9.23 6.3207 6.7621-15.726z" fill="#8879bc"/>
 <path d="m65.671 136.74-6.4166 16.13 11.994 5.0566 5.7749-16.788z" fill="#9c8bc1"/>
 <path d="m77.021 141.14 5.7749-16.788-10.711-3.7418-6.4166 16.13z" fill="#a28fc0"/>
 <path d="m55.211 131.48-6.7621 15.726 10.81 5.6634 6.4166-16.13z" fill="#9383be"/>
 <path d="m32.304 112.01 6.1204 7.0286 6.7621-14.765-6.4166-6.4219z" fill="#7064b5"/>
 <path d="m32.304 112.01-6.466 14.158 5.7749 7.6354 6.8115-14.765z" fill="#645eb6"/>
 <path d="m23.666 96.84-4.3929 12.641 2.3692 8.2928 5.232-13.4z" fill="#1a28a2"/>
 <path d="m21.643 117.78 4.1955 8.3939 6.466-14.158-5.4294-7.6354z" fill="#4748af"/>
 <path d="m19.273 109.48-4.2448 12.237 1.3327 9.4558 5.2814-13.4z" fill="#1a28a2"/>
 <path d="m18.78 101.9-3.8006 15.473 0.04936 4.3486 4.2448-12.237z" fill="#000085"/>
 <path d="m19.273 109.48 4.3929-12.641-1.2833-6.8769-3.6032 11.934z" fill="#000085"/>
 <path d="m16.361 131.18-1.3327-9.4558-3.8006 10.973-0.19744 0.55622 0.29615 10.771z" fill="#00189c"/>
 <path d="m11.327 144.02 2.4186 8.5962 6.0711-13.299-3.4551-8.1411z" fill="#353eae"/>
 <path d="m15.029 121.72-0.04936-4.3486-3.7512 15.321z" fill="#000085"/>
 <path d="m19.816 139.32 6.0217-13.147-4.1955-8.3939-5.2814 13.4z" fill="#4748af"/>
 <path d="m25.838 126.17-6.0217 13.147 5.4788 8.2422 6.3179-13.754z" fill="#645eb6"/>
 <path d="m39.211 140.88 7.0089-15.321-7.7986-6.523-6.8115 14.765z" fill="#796dba"/>
 <path d="m31.613 133.81-6.3179 13.754 7.2063 7.9894 6.7127-14.664z" fill="#796dba"/>
 <path d="m34.971 178.4 6.9102-15.979-9.3781-6.8769-6.9102 15.018z" fill="#8075bd"/>
 <path d="m32.501 155.55-7.2063-7.9894-6.614 14.411 6.9102 8.5962z" fill="#6f68ba"/>
 <path d="m18.681 161.97 6.614-14.411-5.4788-8.2422-6.0711 13.299z" fill="#5857b6"/>
 <path d="m59.251 152.87-10.81-5.6634-6.5647 15.22 10.958 6.4724z" fill="#9383be"/>
 <path d="m52.841 168.9 12.833 5.1071 5.5775-16.08-11.994-5.0566z" fill="#9c8bc1"/>
 <path d="m48.441 147.21-9.23-6.3207-6.7127 14.664 9.3781 6.8769z" fill="#8879bc"/>
 <path d="m41.881 162.43-6.9102 15.979 11.352 6.8264 6.5153-16.333z" fill="#8d7fbf"/>
 <path d="m59.891 190.79 5.7749-16.788-12.833-5.1071-6.5153 16.333z" fill="#9788c2"/>
 <path d="m80.231 178.35-14.561-4.3486-5.7749 16.788 15.795 4.5509z" fill="#9e8fc4"/>
 <path d="m75.691 195.34 16.782 2.6294 3.0109-17.091-15.252-2.5283z" fill="#a596c6"/>
 <path d="m80.231 178.35 4.4423-16.737-13.426-3.6913-5.5775 16.08z" fill="#a492c3"/>
 <path d="m71.251 157.93 13.426 3.6913 4.4423-16.788-12.093-3.6913z" fill="#a492c3"/>
 <path d="m146.77 132.9 4.8371 14.664 11.303-2.4777-7.0089-13.703z" fill="#bcbdda"/>
 <path d="m126.53 133.15 0.39487 15.777 12.883-0.0506-2.6654-15.726z" fill="#bab1d0"/>
 <path d="m137.14 133.15 2.6654 15.726 11.797-1.3147-4.8371-14.664z" fill="#bcb7d5"/>
 <path d="m104.32 130.47-2.9122 16.737 12.883 1.4664 1.382-16.788z" fill="#b4a4c8"/>
 <path d="m82.801 124.35-5.7749 16.788 12.093 3.6913 4.4423-16.788z" fill="#a996c2"/>
 <path d="m93.561 128.04-4.4423 16.788 12.29 2.3766 2.9122-16.737z" fill="#af9dc5"/>
 <path d="m101.4 147.21-2.9615 16.788 14.413 1.4664 1.4314-16.788z" fill="#aea0c9"/>
 <path d="m112.86 165.46 14.511 0.25282-0.44422-16.788-12.636-0.25283z" fill="#b2a6cc"/>
 <path d="m84.671 161.62-4.4423 16.737 15.252 2.5283 2.9615-16.889z" fill="#a999c6"/>
 <path d="m98.441 163.99 2.9615-16.788-12.29-2.3766-4.4423 16.788z" fill="#a999c6"/>
 <path d="m111.47 182.15 1.382-16.687-14.413-1.4664-2.9615 16.889z" fill="#aea0c9"/>
 <path d="m95.481 180.88-3.0109 17.091 17.522 1.6687 1.4808-17.496z" fill="#aa9dc9"/>
 <path d="m111.47 182.15 16.338 0.15169-0.44422-16.586-14.511-0.25282z" fill="#b2a6cc"/>
 <path d="m156.39 162.22-4.7878-14.664-11.797 1.3147 2.7147 15.726z" fill="#b7b2d4"/>
 <path d="m142.52 164.6 2.7147 16.181 16.239-3.0845-5.0839-15.473z" fill="#b7b2d4"/>
 <path d="m126.92 148.92 0.44422 16.788 15.153-1.1124-2.7147-15.726z" fill="#b5acd0"/>
 <path d="m142.52 164.6-15.153 1.1124 0.44422 16.586 17.424-1.517z" fill="#b5acd0"/>
 <path d="m127.81 182.3 0.44423 17.344 19.743-2.5283-2.7641-16.333z" fill="#b1a8cf"/>
 <path d="m114.29 148.67 12.636 0.25283-0.39487-15.777-10.859-1.2641z" fill="#b8abcc"/>
 <path d="m111.47 182.15-1.4808 17.496h18.263l-0.44423-17.344z" fill="#aea3cc"/>
 <g fill="none" stroke="#000">
  <path d="m24.703 62.963c3.4155-14.579 12.84-27.232 26.008-34.42 25.035-15.526 55.527-19.145 84.422-18.109 33.192 2.8557 67.037 11.911 93.144 33.524 17.641 14.366 32.062 35.581 30.645 59.213-0.59557 24.453-15.561 46.381-34.418 60.949-29.366 23.61-67.447 34.565-104.73 35.612-30.489-0.61664-63.139-4.869-88.061-23.943-13.14-10.259-22.371-26.019-20.481-43.096"/>
  <path d="m24.703 70.194c14.086-25.356 42.656-37.681 69.928-42.86 40.711-6.9605 84.85-0.0482 119.23 23.569 14.428 10.723 27.173 26.319 29.364 44.649 2.1658 19.317-7.4776 37.788-21.29 50.688-19.474 18.473-45.46 28.627-71.479 33.597-32.863 4.9406-67.969 3.0907-98.288-11.514-19.058-9.1532-37.434-26.718-37.217-49.288l0.02958-1.6635"/>
  <path d="m30.083 87.588c27.516-27.222 68.413-35.077 105.84-33.091 23.401 2.2407 48.516 7.9918 65.762 25.041 10.918 9.922 14.507 27.853 4.9411 39.894-12.513 17.194-33.756 24.053-53.793 27.764-35.043 5.1535-72.828 0.21752-103.03-19.175-14.604-9.9922-28.414-25.312-27.773-44.131l-0.05079-1.3874-0.04192-1.3863"/>
  <path d="m35.808 94.92c24.25-18.17 54.719-25.936 84.711-25.914 21.913-0.44955 45.215 2.7195 63.845 15.049 9.2959 6.133 17.125 19.215 9.2809 29.435-8.9032 12.68-25.129 16.331-39.589 18.247-31.51 4.4863-64.313-1.7934-92.527-16.317-12.57-7.3145-24.4-16.864-32.318-29.152-3.712-7.1284-4.9315-15.342-4.5088-23.305"/>
  <path d="m18.78 101.9c-0.20627 21.249 15.966 38.501 33.931 47.62 29.882 16.022 65.554 19.065 98.629 13.632 23.754-4.4463 47.905-13.792 64.567-31.886 11.507-12.807 15.885-32.388 7.169-47.9-13.493-25.04-42.219-35.759-68.627-41.079-31.856-6.3324-65.867-2.1958-95.304 11.475-12.646 5.8563-24.801 14.078-32.665 25.789"/>
  <path d="m24.703 62.963-5.923 38.936"/>
  <path d="m26.06 77.931-11.081 39.44"/>
  <path d="m28.059 83.839-13.045 37.923"/>
  <path d="m14.979 117.37-3.7513 15.321"/>
  <path d="m15.014 121.76-3.7861 10.931"/>
  <path d="m32.366 90.759-20.865 52.863"/>
  <path d="m38.664 98.019-24.78 54.39"/>
  <path d="m45.313 104.15-26.712 57.455"/>
  <path d="m25.818 170.55 27.498-60.325"/>
  <path d="m61.864 115.59-26.683 62.726"/>
  <path d="m72.211 120.43-25.833 64.546"/>
  <path d="m82.863 124.52-22.962 66.188"/>
  <path d="m93.637 127.82-18.001 67.314"/>
  <path d="m104.41 130.31-12.025 67.633"/>
  <path d="m115.62 132.07-5.5842 67.331"/>
  <path d="m126.52 132.99 1.6795 66.336"/>
  <path d="m137.1 133.12 10.701 63.909"/>
  <path d="m146.68 132.59 19.889 60.348"/>
  <path d="m184.45 187.04-28.545-55.559"/>
  <path d="m164.74 129.94 36.593 49.38"/>
  <path d="m216.02 170.43-43.781-42.468"/>
  <path d="m179.33 125.18 49.947 35.02"/>
  <path d="m239.75 149.61-54.674-27.729"/>
  <path d="m189.54 118.27 58.949 19.207"/>
  <path d="m254.34 125.55-61.718-10.683"/>
  <path d="m195.17 111.12 62.656 2.3316"/>
  <path d="m196.7 106.43 62.306-5.2726"/>
  <path d="m257.83 88.595-61.04 14.021"/>
  <path d="m196.05 98.984 58.047-22.106"/>
  <path d="m248.64 66.56-54.655 27.704"/>
  <path d="m191.02 90.012 50.075-33.622"/>
  <path d="m231.63 46.808-43.967 39.775"/>
  <path d="m182.54 82.885 38.753-44.289"/>
  <path d="m176.46 79.489 33.027-48.335"/>
  <path d="m196.35 24.718-26.653 51.755"/>
  <path d="m162.3 73.918 20.89-54.146"/>
  <path d="m169.21 15.824-14.665 56.101"/>
  <path d="m145.31 70.301 9.3284-57.431"/>
  <path d="m140.63 10.964-4.2897 58.413"/>
  <path d="m127.21 10.271-1.6649 58.697"/>
  <path d="m114.77 69.098-2.4273-58.398"/>
  <path d="m99.175 12.02 4.7831 57.781"/>
  <path d="m93.189 71.224-7.1049-56.823"/>
  <path d="m74.613 17.56 8.2596 55.758"/>
  <path d="m72.444 76.236-9.1992-54.317"/>
  <path d="m53.736 26.739 8.2944 53.321"/>
  <path d="m51.983 84.754-7.229-52.406"/>
  <path d="m37.537 38.811 5.3827 51.186"/>
  <path d="m34.336 93.231-2.7877-46.624"/>
  <path d="m27.977 53.27 0.08161 30.569"/>
 </g>
</svg>
